<?xml version="1.0" encoding="utf-8"?>
<!-- Generator: Adobe Illustrator 19.2.1, SVG Export Plug-In . SVG Version: 6.00 Build 0)  -->
<svg version="1.1" id="Layer_1" xmlns="http://www.w3.org/2000/svg" xmlns:xlink="http://www.w3.org/1999/xlink" x="0px" y="0px"
	 viewBox="0 0 39.8 24.5" style="enable-background:new 0 0 39.8 24.5;" xml:space="preserve">
<style type="text/css">
	.st0{fill:none;stroke:#1C191B;stroke-width:2.4;stroke-miterlimit:10;}
	.st1{display:none;fill:#517AB7;stroke:#1C191B;stroke-miterlimit:10;}
	.st2{font-family:'TrebuchetMS-Bold';}
	.st3{font-size:8.4995px;}
	.st4{font-size:6.3746px;}
</style>
<g>
	<path class="st0" d="M31.1,9.9L31.1,9.9L31.1,9.9c0-4.4-3.6-8-8-8c-3,0-5.6,1.6-6.9,4c-0.8-0.5-1.7-0.8-2.7-0.8
		c-2.7,0-4.8,2.2-4.8,4.8l0,0l0,0c-3.5,0-6.4,2.9-6.4,6.4c0,3.5,2.9,6.4,6.4,6.4h22.4c3.5,0,6.4-2.9,6.4-6.4
		C37.5,12.7,34.7,9.9,31.1,9.9z"/>
	<text transform="matrix(1 0 0 1 5.6226 16.7266)" class="st1 st2 st3">wolken</text>
	<text transform="matrix(1 0 0 1 11.6402 8.6934)" class="st1 st2 st4">op</text>
	<text transform="matrix(1 0 0 1 14.6885 27.4356)" class="st1 st2 st3">.com</text>
</g>
</svg>
